<?xml version="1.0" encoding="utf-8"?>
<!-- Generator: Adobe Illustrator 23.0.0, SVG Export Plug-In . SVG Version: 6.00 Build 0)  -->
<svg version="1.1" id="Layer_1" xmlns="http://www.w3.org/2000/svg" xmlns:xlink="http://www.w3.org/1999/xlink" x="0px" y="0px"
	 viewBox="0 0 595.28 586.17" style="enable-background:new 0 0 595.28 586.17;" xml:space="preserve">
<style type="text/css">
	.st0{fill:url(#SVGID_1_);}
	.st1{fill:none;}
	.st2{fill:#333333;}
	.st3{font-family:'Montserrat-Medium';}
	.st4{font-size:63px;}
</style>
<linearGradient id="SVGID_1_" gradientUnits="userSpaceOnUse" x1="101.7669" y1="87.4139" x2="476.7242" y2="481.1578">
	<stop  offset="0.176" style="stop-color:#EC6262"/>
	<stop  offset="0.5391" style="stop-color:#E61443"/>
	<stop  offset="0.8268" style="stop-color:#EC004D"/>
</linearGradient>
<path class="st0" d="M209.35,190.28l0.09,147.29L0,337.49C82.39,183.92,209.35,190.28,209.35,190.28z M595.28,248.71l-209.45-0.08
	l0.09,147.29C385.92,395.92,512.89,402.27,595.28,248.71z M372.57,586.17V248.63l-149.8,103.02
	C217.48,523.71,372.57,586.17,372.57,586.17z M222.67,0.02v337.55l149.8-103.02C377.76,62.49,222.67,0.02,222.67,0.02z"/>
<rect x="372.57" y="538.8" class="st1" width="222.7" height="64.49"/>
<text transform="matrix(1 0 0 1 372.572 585.5485)" class="st2 st3 st4">bloom.</text>
</svg>
